<svg xmlns="http://www.w3.org/2000/svg" version="1.1" xmlns:xlink="http://www.w3.org/1999/xlink" width="200" height="200"><svg xmlns="http://www.w3.org/2000/svg" version="1.1" xmlns:xlink="http://www.w3.org/1999/xlink" viewBox="0 0 200 200"><rect width="200" height="200" fill="url('#gradient')"></rect><defs><linearGradient id="SvgjsLinearGradient1001" gradientTransform="rotate(45 0.5 0.5)"><stop offset="0%" stop-color="#7dabaa"></stop><stop offset="100%" stop-color="#f5e8ce"></stop></linearGradient></defs><g><g fill="#2c1f37" transform="matrix(4.432900432900433,0,0,4.432900432900433,10.124505179397985,131.51729753626373)" stroke="#15374d" stroke-width="0.2"><path d="M3.65-14.22L6.28-8.05L8.90-14.22L12.60-14.22L8.02-5.11L8.02 0L4.54 0L4.54-5.11L-0.03-14.22L3.65-14.22ZM22.83-14.22L24.81-5.30L26.45-14.22L29.84-14.22L26.83 0L23.27 0L21.37-8.11L19.50 0L15.96 0L12.93-14.22L16.34-14.22L17.97-5.30L19.92-14.22L22.83-14.22ZM34.61-14.22L34.61-2.64L40.58-2.64L40.58 0L31.18 0L31.18-14.22L34.61-14.22Z"></path></g></g></svg><style>@media (prefers-color-scheme: light) { :root { filter: none; } }
@media (prefers-color-scheme: dark) { :root { filter: none; } }
</style></svg>